# xmcd CD database file
#
# Track frame offsets:
#	150
#	37552
#	65600
#	102617
#	127090
#	155975
#	192977
#	227175
#	273750
#
# Disc length: 3829 seconds
#
# Revision: 0
# Processed by: cddbd v1.5.2PL0 Copyright (c) Steve Scherf et al.
# Submitted via: CDex 1.70beta2
#
DISCID=7f0ef309
DTITLE=Frank Speer Acoustic Quartet - Dread Nay
DYEAR=1997
DGENRE=Jazz
TTITLE0=J.A.C.E. ( Just Another Confused Elephant)
TTITLE1=At End Of Day
TTITLE2=Attempt To Raise Hell - Part I
TTITLE3=Attempt To Raise Hell - Part II
TTITLE4=Attempt To Raise Hell - Part III
TTITLE5=Metamorphism
TTITLE6=Tango Till They Soar (For Barbara)
TTITLE7=Dread Nay
TTITLE8=Bates Waits
EXTD=YEAR: 1997
EXTT0=
EXTT1=
EXTT2=
EXTT3=
EXTT4=
EXTT5=
EXTT6=
EXTT7=
EXTT8=
PLAYORDER=
